{"title":"Alien Ressurection[DVDRip][H264&amp;AAC][h33t][cybermonk]","uid":4463928,"size":1079602643,"categoryP":"video","categoryS":"movies","magnet":"?xt=urn:btih:2dec257f60f28ceafab6545a067f301386b9f986&amp;dn=Alien+Ressurection%5BDVDRip%5D%5BH264%26AAC%5D%5Bh33t%5D%5Bcybermonk%5D&amp;tr=udp%3A%2F%2Ftracker.openbittorrent.com%3A80&amp;tr=udp%3A%2F%2Fopen.demonii.com%3A1337&amp;tr=udp%3A%2F%2Ftracker.coppersurfer.tk%3A6969&amp;tr=udp%3A%2F%2Fexodus.desync.com%3A6969","seeders":1,"leechers":1,"uploader":"cybermonk1","files":5,"time":1224827348,"description":"*********************************************\n                General\n*********************************************\n      Complete name : Alien Resurrection.mp4\n      Format : MPEG-4\n      Format profile : Base Media\n      Codec ID : isom\n      File size : 1.01 GiB\n      Duration : 1h 44mn\n      Overall bit rate : 1383 Kbps\n      Movie name : Alien Resurrection\n*********************************************      \n                 Video \n*********************************************\n      Format : AVC\n      Format/Info : Advanced Video Codec\n      Format profile : &lt;a class=&quot;__cf_email__&quot; href=&quot;/cdn-cgi/l/email-protection&quot; data-cfemail=&quot;57153624323b3e3932171b647967&quot;&gt;[email&amp;#160;protected]&lt;/a&gt;&lt;script cf-hash='f9e31' type=&quot;text/javascript&quot;&gt;\n/* &lt;![CDATA[ */!function(){try{var t=&quot;currentScript&quot;in document?document.currentScript:function(){for(var t=document.getElementsByTagName(&quot;script&quot;),e=t.length;e--;)if(t[e].getAttribute(&quot;cf-hash&quot;))return t[e]}();if(t&amp;&amp;t.previousSibling){var e,r,n,i,c=t.previousSibling,a=c.getAttribute(&quot;data-cfemail&quot;);if(a){for(e=&quot;&quot;,r=parseInt(a.substr(0,2),16),n=2;a.length-n;n+=2)i=parseInt(a.substr(n,2),16)^r,e+=String.fromCharCode(i);e=document.createTextNode(e),c.parentNode.replaceChild(e,c)}}}catch(u){}}();/* ]]&gt; */&lt;/script&gt;\n      Format settings, CABAC : No\n      Format settings, ReFrames : 1 frame\n      Codec ID : avc1\n      Duration : 1h 44mn\n      Bit rate mode : Variable\n      Bit rate : 1219 Kbps\n      Width : 720 pixels\n      Height : 480 pixels\n      Display aspect ratio : 1.500\n      Frame rate mode : Constant\n      Frame rate : 25.000 fps\n      Standard : NTSC\n      Colorimetry : 4:2:0\n      Scan type : Progressive\n      Bits/(Pixel*Frame) : 0.141\n      Stream size : 907 MiB (88%)\n*********************************************      \n                 Audio\n*********************************************\n      Format : AAC\n      Format/Info : Advanced Audio Codec\n      Format version : Version 4\n      Format profile : LC\n      Format settings, SBR : No\n      Codec ID : 40\n      Duration : 1h 44mn\n      Bit rate mode : Variable\n      Bit rate : 160 Kbps\n      Channel(s) : 2 channels\n      Channel positions : L R\n      Sampling rate : 48.0 KHz\n      Resolution : 16 bits\n      Stream size : 119 MiB (12%)\n*********************************************","torrent":{"xt":"urn:btih:2dec257f60f28ceafab6545a067f301386b9f986","amp;dn":"Alien+Ressurection%5BDVDRip%5D%5BH264%26AAC%5D%5Bh33t%5D%5Bcybermonk%5D","amp;tr":["udp%3A%2F%2Ftracker.openbittorrent.com%3A80","udp%3A%2F%2Fopen.demonii.com%3A1337","udp%3A%2F%2Ftracker.coppersurfer.tk%3A6969","udp%3A%2F%2Fexodus.desync.com%3A6969"],"infoHash":"2dec257f60f28ceafab6545a067f301386b9f986","infoHashBuffer":{"type":"Buffer","data":[45,236,37,127,96,242,140,234,250,182,84,90,6,127,48,19,134,185,249,134]},"announce":[],"urlList":[]}}